<svg xmlns="http://www.w3.org/2000/svg" width="18" height="16" viewBox="0 0 18 16">
  <g id="favorite" transform="translate(0 -11.209)" fill="#01768b">
    <path d="M 8.999946594238281 25.98606872558594 C 8.196202278137207 25.40918350219727 6.331679344177246 24.00824165344238 4.60515022277832 22.2552318572998 C 2.111860036849976 19.72379112243652 1 17.85906219482422 1 16.20898246765137 C 1 15.20682239532471 1.426349997520447 14.19448184967041 2.169719934463501 13.43153190612793 C 2.937860012054443 12.64316177368164 3.943010091781616 12.20898246765137 5 12.20898246765137 C 6.101669788360596 12.20898246765137 7.374829769134521 12.85822200775146 8.24351978302002 13.86300182342529 L 9 14.73799228668213 L 9.75648021697998 13.86300182342529 C 10.62516975402832 12.85822200775146 11.89832973480225 12.20898246765137 13 12.20898246765137 C 14.0569896697998 12.20898246765137 15.06214046478271 12.64316177368164 15.83028030395508 13.43153190612793 C 16.57365036010742 14.19448184967041 17 15.20682239532471 17 16.20898246765137 C 17 17.85910224914551 15.8881196975708 19.7238712310791 13.39482021331787 22.25533294677734 C 11.66834449768066 24.00821685791016 9.803752899169922 25.4091682434082 8.999946594238281 25.98606872558594 Z" stroke="none"/>
    <path d="M 5 13.20898246765137 C 4.21504020690918 13.20898246765137 3.464260101318359 13.53585243225098 2.885959625244141 14.12938117980957 C 2.322919845581055 14.70725250244141 2 15.46523284912109 2 16.20898246765137 C 2 17.55719184875488 3.054189682006836 19.25546264648438 5.317609786987305 21.55353164672852 C 6.657146453857422 22.91360092163086 8.083864212036133 24.05606079101562 8.999961853027344 24.74496078491211 C 9.916108131408691 24.05604934692383 11.34287643432617 22.91359710693359 12.68237018585205 21.55362129211426 C 14.94579982757568 19.25554275512695 16 17.55724143981934 16 16.20898246765137 C 16 15.46523284912109 15.67708015441895 14.70725250244141 15.11404037475586 14.12938117980957 C 14.53573989868164 13.53585243225098 13.78495979309082 13.20898246765137 13 13.20898246765137 C 12.18882942199707 13.20898246765137 11.18937015533447 13.73464202880859 10.51296043395996 14.51702117919922 L 9 16.26699256896973 L 7.487039566040039 14.51702117919922 C 6.810629844665527 13.73464202880859 5.811169624328613 13.20898246765137 5 13.20898246765137 M 5 11.20898246765137 C 6.54347038269043 11.20898246765137 8.048379898071289 12.1082820892334 9 13.20898246765137 C 9.951620101928711 12.1082820892334 11.45652961730957 11.20898246765137 13 11.20898246765137 C 15.79071044921875 11.20898246765137 18 13.60815238952637 18 16.20898246765137 C 18 18.25202178955078 16.69029998779297 20.33449172973633 14.10727977752686 22.95705223083496 C 12.1164493560791 24.97832107543945 9.95065975189209 26.54338073730469 9.334320068359375 26.97490310668945 L 8.999930381774902 27.2090015411377 L 8.665530204772949 26.97487258911133 C 8.049150466918945 26.54331207275391 5.883440017700195 24.97822189331055 3.892680168151855 22.95694160461426 C 1.309659957885742 20.33438110351562 0 18.25191116333008 0 16.20898246765137 C 0 13.60815238952637 2.20928955078125 11.20898246765137 5 11.20898246765137 Z" stroke="none" fill="#01768b"/>
  </g>
</svg>
